<svg width="56" height="56" viewBox="0 0 56 56" fill="none" xmlns="http://www.w3.org/2000/svg">
<path d="M19.5407 30.8458C19.5972 30.7223 19.6426 30.6171 19.6928 30.5143C19.7041 30.4913 19.7326 30.4769 19.778 30.4365C19.8926 30.7515 19.9993 31.0517 20.1115 31.3499C20.162 31.484 20.2017 31.6297 20.284 31.7426C20.5414 32.0958 20.3839 32.376 20.1695 32.6709C18.8387 34.5019 17.0512 35.5915 14.8096 35.8524C12.6933 36.0986 10.7665 35.5476 9.10921 34.1876C7.55786 32.9146 6.60324 31.2674 6.37547 29.2751C6.04741 26.4058 7.0402 24.0323 9.30919 22.2336C10.5159 21.2769 11.9135 20.7883 13.4583 20.6876C17.3616 20.4333 20.8523 23.2124 21.4707 27.1369C21.5604 27.7066 21.5166 28.2801 21.5806 28.8505C21.8154 30.9417 22.8237 32.5438 24.6279 33.6106C27.8103 35.4924 31.9234 34.1267 33.3915 30.728C33.4322 30.6338 33.4499 30.5251 33.5335 30.4558C33.6164 30.4551 33.6243 30.5161 33.6394 30.5707C33.7696 31.0419 33.948 31.4958 34.168 31.9308C34.2635 32.1196 34.2401 32.2586 34.1268 32.4276C32.8552 34.3261 31.0994 35.4864 28.839 35.8202C25.0199 36.3843 21.4396 34.0555 20.3846 30.3489C20.2011 29.7044 20.1325 29.044 20.1114 28.3691C20.0277 25.6843 18.7856 23.7222 16.3259 22.6091C13.8824 21.5033 10.8863 22.2649 9.18786 24.3419C8.10359 25.6679 7.63183 27.1848 7.77798 28.8747C8.01063 31.5648 10.076 33.8215 12.7387 34.3485C15.5056 34.8961 18.3105 33.4694 19.5407 30.8458Z" fill="url(#paint0_linear_9_454)"/>
<path d="M46.1527 22.2376C49.6622 24.9545 50.1542 29.9744 47.2374 33.3126C45.8499 34.9005 44.0848 35.7762 41.9768 35.8748C38.9043 36.0186 36.5602 34.7246 34.9448 32.1308C34.2234 30.9723 33.8923 29.6761 33.8971 28.3095C33.9062 25.7309 32.3052 23.5195 30.0957 22.5907C26.9684 21.276 23.3143 22.7772 22.0385 25.9071C22.0069 25.9846 21.9851 26.071 21.8867 26.1191C21.7671 25.9888 21.7715 25.8164 21.7118 25.6707C21.5633 25.3086 21.4191 24.9445 21.2582 24.5879C21.1913 24.4396 21.1991 24.3273 21.2902 24.1911C22.5819 22.2603 24.3533 21.0812 26.6665 20.7469C30.1067 20.2497 33.3239 22.1596 34.6717 25.1466C35.1224 26.1456 35.3583 27.1949 35.3512 28.2859C35.3323 31.1764 37.4215 33.8711 40.5432 34.3851C43.911 34.9396 47.0375 32.6147 47.6064 29.3285C48.191 25.9511 45.8434 22.6819 42.4587 22.1753C39.658 21.7562 36.9303 23.2935 35.8259 25.9131C35.7969 25.9819 35.7861 26.0619 35.7177 26.1054C35.6707 26.1085 35.6393 26.0897 35.6274 26.049C35.4731 25.5252 35.2682 25.0211 35.0315 24.5299C34.9783 24.4193 34.9992 24.3338 35.0623 24.2378C36.3441 22.2867 38.1154 21.0859 40.4407 20.7521C42.5406 20.4507 44.4342 20.9745 46.1527 22.2376Z" fill="url(#paint1_linear_9_454)"/>
<path d="M43.4584 27.3342C42.8941 28.0829 42.3434 28.8162 41.7896 29.5471C41.5818 29.8214 41.4064 29.8232 41.203 29.5477C40.6241 28.7637 40.0515 27.9751 39.4724 27.1913C39.4188 27.1186 39.3878 27.0172 39.2784 26.9879C39.1763 27.1028 39.2126 27.2419 39.2125 27.3696C39.211 28.7172 39.2068 30.0649 39.2205 31.4124C39.2231 31.6762 39.1494 31.7737 38.8829 31.7477C38.6652 31.7265 38.4424 31.7286 38.2242 31.7471C37.9544 31.77 37.8537 31.6803 37.8592 31.3967C37.8752 30.5655 37.8645 29.7338 37.8641 28.9023C37.8635 27.6598 37.868 26.4173 37.8579 25.1749C37.8558 24.9178 37.9305 24.8035 38.2013 24.8278C38.4098 24.8465 38.6265 24.8594 38.8307 24.824C39.2774 24.7465 39.5263 24.9691 39.7614 25.3104C40.2598 26.034 40.7892 26.7361 41.3083 27.4453C41.3687 27.5278 41.4127 27.6294 41.5539 27.6851C41.7256 27.4598 41.9064 27.2299 42.0792 26.9942C42.5536 26.3471 43.0297 25.7011 43.4933 25.0462C43.6067 24.8861 43.7329 24.823 43.9237 24.8301C44.2291 24.8415 44.536 24.8469 44.8409 24.8302C45.0887 24.8167 45.1797 24.9006 45.1756 25.1552C45.163 25.9483 45.1706 26.7417 45.1705 27.535C45.1703 28.8253 45.1641 30.1156 45.1752 31.4058C45.1775 31.6703 45.0938 31.7674 44.8299 31.7464C44.5925 31.7275 44.3517 31.7317 44.1136 31.7457C43.8906 31.7589 43.8112 31.678 43.814 31.4507C43.8241 30.6193 43.8175 29.7877 43.8173 28.9562C43.8172 28.2881 43.8173 27.62 43.8173 26.8639C43.6687 27.0587 43.5697 27.1883 43.4584 27.3342Z" fill="#EBEBF0"/>
<path d="M28.0984 30.4821C27.9528 30.3159 27.7862 30.1832 27.6948 30.0107C27.3581 29.375 26.7843 29.4238 26.2074 29.4545C26.0108 29.4649 26.0128 29.5982 26.0128 29.7374C26.0124 30.2724 26.0113 30.8074 26.011 31.3424C26.0108 31.742 26.0111 31.742 25.5987 31.743C25.398 31.7435 25.1959 31.7285 24.9971 31.7479C24.7257 31.7743 24.6537 31.6582 24.6547 31.402C24.6628 29.4626 24.6598 27.5231 24.6603 25.5836C24.6603 25.4212 24.6672 25.2585 24.659 25.0965C24.6491 24.8996 24.7331 24.8225 24.9297 24.8269C26.0845 24.8528 27.2422 24.7648 28.3939 24.8873C29.231 24.9763 29.8874 25.3893 30.2281 26.1705C30.5821 26.9823 30.5221 27.7951 30.0165 28.5434C29.8199 28.8345 29.5371 29.0328 29.2081 29.1609C29.0852 29.2087 28.9628 29.2579 28.8084 29.319C28.9501 29.5707 29.1433 29.7522 29.3145 29.9485C29.754 30.4521 30.1997 30.9503 30.6417 31.4517C30.6962 31.5136 30.786 31.5709 30.7409 31.6695C30.6965 31.7667 30.5935 31.7412 30.5111 31.7418C30.1385 31.7445 29.7658 31.7383 29.3933 31.7458C29.2441 31.7487 29.1455 31.6893 29.0518 31.5786C28.7432 31.2142 28.4258 30.8572 28.0984 30.4821ZM26.1216 28.2023C26.751 28.2084 27.3805 28.2238 28.0099 28.2179C28.6377 28.2121 29.0718 27.7838 29.0802 27.1877C29.0889 26.5743 28.6581 26.1325 28.0182 26.12C27.4458 26.1089 26.873 26.1221 26.3005 26.114C26.0951 26.1111 26.0068 26.1815 26.0104 26.3955C26.0193 26.9202 26.0127 27.4452 26.0129 27.97C26.0129 28.0465 26.0113 28.1242 26.1216 28.2023Z" fill="#EBEBF0"/>
<path d="M11.9365 29.0271C12.3787 30.6971 14.4265 31.0179 15.6133 30.1047C15.8255 29.9415 15.9476 29.9367 16.129 30.1364C16.3329 30.3606 16.5785 30.5469 16.815 30.7579C16.5197 31.1665 16.1712 31.3918 15.7948 31.535C14.3146 32.098 12.8907 32.0503 11.6154 31.0062C10.9968 30.4997 10.6973 29.7969 10.5706 29.0218C10.4008 27.9836 10.5648 27.0064 11.164 26.1257C11.7396 25.2796 12.5769 24.8532 13.5649 24.7308C14.6645 24.5946 15.6702 24.8386 16.5254 25.588C16.6777 25.7214 16.7049 25.8027 16.5363 25.941C16.3449 26.0979 16.1681 26.275 15.9996 26.4569C15.8689 26.5983 15.7719 26.5974 15.6156 26.4794C14.9323 25.9634 14.1609 25.869 13.3591 26.1068C12.1065 26.4783 11.7272 27.7496 11.8625 28.6982C11.8772 28.8016 11.9065 28.903 11.9365 29.0271Z" fill="#EBEBF0"/>
<defs>
<linearGradient id="paint0_linear_9_454" x1="35.9721" y1="28.2904" x2="6.31427" y2="28.2904" gradientUnits="userSpaceOnUse">
<stop stop-color="#F2EFE7"/>
<stop offset="1" stop-color="#9ACBD0"/>
</linearGradient>
<linearGradient id="paint1_linear_9_454" x1="50.8865" y1="28.277" x2="21.214" y2="28.277" gradientUnits="userSpaceOnUse">
<stop stop-color="#F2EFE7"/>
<stop offset="1" stop-color="#9ACBD0"/>
</linearGradient>
</defs>
</svg>
